<svg width="500" height="500" viewBox="0 0 500 500" fill="none" xmlns="http://www.w3.org/2000/svg">
<path d="M200.176 105.627C199.728 108.943 199.997 175.355 200.445 176.072C200.893 176.789 227.243 177.058 293.833 177.147L386.504 177.237L393.584 165.138C397.438 158.416 401.023 152.321 401.471 151.425C402.457 149.812 407.835 140.401 410.613 135.472C411.599 133.68 415.273 127.316 418.769 121.312C422.354 115.217 425.849 109.123 426.566 107.689L428 105H314.088C251.531 105 200.266 105.269 200.176 105.627Z" fill="url(#paint0_linear)"/>
<path d="M75.0613 213.84L73 214.109V249.959V285.719H195.426H317.852L319.555 283.657C320.451 282.582 321.168 281.417 321.258 281.148C321.258 280.7 331.027 263.313 333.805 258.831C334.522 257.577 351.909 227.553 353.433 224.774C353.881 224.057 355.494 221.279 357.018 218.68C358.542 216.081 359.796 213.84 359.796 213.751C359.796 213.482 77.1227 213.571 75.0613 213.84Z" fill="url(#paint1_linear)"/>
<path d="M200.535 323.593C200.087 323.862 199.818 340.083 199.818 359.532L199.907 394.933L232.531 395.202L265.243 395.381L266.498 392.513C267.215 390.9 268.47 388.57 269.276 387.315C270.083 386.06 271.786 383.282 273.041 381.042C274.295 378.801 282.093 365.268 290.338 351.018C298.583 336.678 305.484 324.579 305.753 324.041C306.112 323.055 201.879 322.607 200.535 323.593Z" fill="#111111"/>
<defs>
<linearGradient id="paint0_linear" x1="386.235" y1="177.392" x2="199.686" y2="105" gradientUnits="userSpaceOnUse">
<stop stop-color="#F5AF19"/>
<stop offset="1" stop-color="#F12711"/>
</linearGradient>
<linearGradient id="paint1_linear" x1="318.02" y1="285.98" x2="73" y2="213.588" gradientUnits="userSpaceOnUse">
<stop stop-color="#F12711"/>
<stop offset="1" stop-color="#F5AF19"/>
</linearGradient>
</defs>
</svg>
