<svg version="1.1" viewBox="0.0 0.0 377.9475065616798 250.51968503937007" fill="none" stroke="none" stroke-linecap="square" stroke-miterlimit="10" xmlns:xlink="http://www.w3.org/1999/xlink" xmlns="http://www.w3.org/2000/svg"><clipPath id="p.0"><path d="m0 0l377.9475 0l0 250.51968l-377.9475 0l0 -250.51968z" clip-rule="nonzero"/></clipPath><g clip-path="url(#p.0)"><path fill="#000000" fill-opacity="0.0" d="m0 0l377.9475 0l0 250.51968l-377.9475 0z" fill-rule="evenodd"/><path fill="#f5f5f5" d="m113.130905 178.74278l72.0 0l0 66.67717l-72.0 0z" fill-rule="evenodd"/><path fill="#f5f5f5" d="m183.85942 178.61958l0 66.23622l46.708664 -66.23622z" fill-rule="evenodd"/><path fill="#f3752b" d="m113.13123 6.9027295l190.70868 0l0 66.67716l-190.70868 0z" fill-rule="evenodd"/><path fill="#f3752b" d="m302.4 6.8869815l0 66.708664l48.0 -66.708664z" fill-rule="evenodd"/><path fill="#f79d5c" d="m26.419947 92.761154l216.0315 0l0 66.67717l-216.0315 0z" fill-rule="evenodd"/><path fill="#f79d5c" d="m240.96 92.74656l0 66.70867l47.999985 -66.70867z" fill-rule="evenodd"/></g></svg>