<svg xmlns="http://www.w3.org/2000/svg" enable-background="new 0 0 512 512" viewBox="0 0 512 512"><polygon fill="#fcba65" points="262.1 33 282.8 21.8 314.5 27.4 323.6 43.3 332.8 44.2 353.6 63.5 360.2 89.2 370.1 114.6 346.3 142.3 354.3 164.3 338.2 184.6 330.4 221.3 294.9 236.5 256 210.1 216.7 234.6 181.5 221.3 173.2 179.5 155.5 164 159.8 146.6 137.2 109.4 156.1 85.5 162.1 52.3 194.1 41.7 212.1 19.1 255 33.9"/><path fill="#3f3a34" d="M380 112.7c0-12.6-6.1-24.2-16.2-31.3.3-1.9.4-3.8.4-5.8 0-22-16.9-40.1-38.3-42.1C319.1 20 305.1 10.7 289 10.7c-13.5 0-25.4 6.5-33 16.5-7.6-10-19.5-16.5-33-16.5-16.1 0-30.1 9.3-36.9 22.8-21.5 2-38.3 20.1-38.3 42.1 0 2 .2 3.9.4 5.8-10.1 7.1-16.2 18.7-16.2 31.3 0 12.2 10.1 23 20.8 31-2.9 3.2-4.9 7.2-5.7 11.9-1.3 7.2.5 14.6 4.9 20.3 3.4 4.4 8.1 7.3 13.4 8.4-.3 2.3-.6 4.7-.6 7.1 0 27.5 22.3 49.8 49.8 49.8 17.2 0 32.5-8.8 41.4-22.2 8.9 13.3 24.2 22.2 41.4 22.2 27.5 0 49.8-22.3 49.8-49.8 0-2.4-.2-4.8-.6-7.1 5.2-1.1 9.9-4 13.4-8.4 4.5-5.7 6.2-13.1 4.9-20.3-.9-4.7-2.9-8.8-5.7-12C370 135.6 380 124.9 380 112.7zM214.6 224.4c-18.2 0-33-14.8-33-33s14.8-33 33-33v-16.8c-19 0-35.6 10.7-43.9 26.4-.3 0-.6.1-.8.1-2.3-.2-3.7-1.5-4.6-2.5-1.5-1.9-2.1-4.5-1.7-7 .7-4 2.9-4.7 3.7-4.9 3.9-1.2 6.7-4.7 7.2-8.7.5-4.1-1.4-8.1-4.9-10.2-12.7-7.9-20.8-16.5-20.8-22.1 0-5.5 2.1-10.6 5.6-14.5 7.5 11.8 20.7 19.6 35.6 19.6V101c-14 0-25.5-11.4-25.5-25.5 0-11.1 7.2-20.5 17.1-23.9 0 .2 0 .3 0 .5 0 22.8 18.6 41.4 41.4 41.4V76.7c-13.6 0-24.6-11-24.6-24.6s11-24.6 24.6-24.6c13.6 0 24.6 11 24.6 24.6v139.3C247.6 209.6 232.8 224.4 214.6 224.4zM342.4 134.7c-3.5 2.2-5.4 6.2-4.9 10.2.5 4.1 3.3 7.5 7.2 8.7.8.3 2.9 1 3.7 4.9.5 2.4-.2 5-1.7 7-.8 1.1-2.3 2.4-4.6 2.5-.3 0-.6-.1-.8-.1-8.4-15.7-24.9-26.4-43.9-26.4v16.8c18.2 0 33 14.8 33 33s-14.8 33-33 33-33-14.8-33-33V52.1c0-13.6 11-24.6 24.6-24.6s24.6 11 24.6 24.6-11 24.6-24.6 24.6v16.8c22.8 0 41.4-18.6 41.4-41.4 0-.2 0-.3 0-.5 9.9 3.5 17.1 12.8 17.1 23.9 0 14-11.4 25.5-25.5 25.5v16.8c15 0 28.1-7.8 35.6-19.6 3.5 3.9 5.6 9 5.6 14.5C363.2 118.2 355.1 126.9 342.4 134.7zM65.7 418.2H48.9V182.1c0-18.4 15-33.4 33.4-33.4h49.2v16.8H82.3c-9.2 0-16.6 7.5-16.6 16.6V418.2z"/><path fill="#3f3a34" d="M34.9 418.2H18.1V151c0-18.4 15-33.4 33.4-33.4h63.9v16.8H51.5c-9.2 0-16.6 7.5-16.6 16.6V418.2zM462.7 418.2h-16.8V182.1c0-9.2-7.5-16.6-16.6-16.6h-49.2v-16.8h49.2c18.4 0 33.4 15 33.4 33.4V418.2z"/><path fill="#3f3a34" d="M493.5 418.2h-16.8V151c0-9.2-7.5-16.6-16.6-16.6h-63.9v-16.8h63.9c18.4 0 33.4 15 33.4 33.4V418.2zM465.6 501.3H46.4c-24.8 0-45-20.2-45-45v-22.6h162.3v16.8H18.2v5.8c0 15.6 12.7 28.2 28.2 28.2h419.1c15.6 0 28.2-12.7 28.2-28.2v-5.8H347.2v-16.8h163.4v22.6C510.6 481.1 490.4 501.3 465.6 501.3z"/><path fill="#3f3a34" d="M293,464.9H219c-20.6,0-37.3-16.8-37.3-37.3v-8.4h148.8v8.4C330.4,448.1,313.6,464.9,293,464.9z M200.2,436
			c3.2,7.1,10.4,12.1,18.7,12.1H293c8.3,0,15.5-5,18.7-12.1H200.2z"/><rect width="14.7" height="14.7" x="99.7" y="310.8" fill="#6fcce2"/><rect width="14.7" height="14.7" x="396.2" y="312.5" fill="#6fcce2"/><rect width="14.7" height="14.7" x="35.3" y="460.1" fill="#3f3a34"/><rect width="14.7" height="14.7" x="66.8" y="460.1" fill="#3f3a34"/><rect width="14.7" height="14.7" x="99.7" y="460.1" fill="#3f3a34"/><rect width="14.7" height="14.7" x="209" y="355.2" fill="#6fcce2"/><rect width="14.7" height="14.7" x="285.2" y="355.2" fill="#6fcce2"/><path fill="#6fcce2" d="M375.3 328.3h-27.6c-15 0-27.1-12.2-27.1-27.1v-43.9h16.8v43.9c0 5.7 4.6 10.3 10.3 10.3h27.6V328.3zM162.2 328.3h-27.6v-16.8h27.6c5.7 0 10.3-4.6 10.3-10.3v-43.9h16.8v43.9C189.3 316.1 177.2 328.3 162.2 328.3z"/><rect width="16.8" height="78.8" x="208" y="257.2" fill="#6fcce2"/><rect width="16.8" height="78.8" x="284.2" y="257.2" fill="#6fcce2"/><rect width="14.7" height="14.7" x="247.8" y="388.5" fill="#6fcce2"/><rect width="16.8" height="112.7" x="246.7" y="257.2" fill="#6fcce2"/></svg>