<svg width="340" height="205" viewBox="0 0 340 205" fill="none" xmlns="http://www.w3.org/2000/svg">
<path d="M87.4109 0.431142C87.1035 2.71036 87.2879 48.3564 87.5959 48.8492C87.9039 49.342 106.014 49.5268 151.784 49.5884L215.479 49.65L220.345 41.334C222.994 36.7139 225.458 32.525 225.766 31.909C226.444 30.8003 230.139 24.3322 232.05 20.9441C232.727 19.7121 235.253 15.3385 237.655 11.2112C240.119 7.02242 242.521 2.83357 243.014 1.84796L244 -6.10352e-05H165.706C122.708 -6.10352e-05 87.473 0.184737 87.4109 0.431142Z" fill="white"/>
<path d="M1.41682 74.4137L0 74.5981V99.2389V123.817H84.1464H168.293L169.463 122.401C170.079 121.661 170.572 120.86 170.634 120.675C170.634 120.367 177.348 108.417 179.258 105.337C179.751 104.474 191.701 83.8384 192.749 81.9288C193.057 81.4358 194.165 79.5262 195.212 77.7403C196.26 75.9537 197.122 74.4137 197.122 74.3522C197.122 74.1671 2.83363 74.2286 1.41682 74.4137Z" fill="white"/>
<path d="M87.6575 150.244C87.3495 150.429 87.165 161.578 87.165 174.945L87.2265 199.278L109.649 199.463L132.133 199.586L132.996 197.615C133.488 196.506 134.351 194.904 134.905 194.042C135.46 193.18 136.63 191.27 137.492 189.73C138.355 188.19 143.714 178.888 149.381 169.094C155.049 159.238 159.792 150.921 159.977 150.552C160.223 149.874 88.5815 149.566 87.6575 150.244Z" fill="white"/>
<path d="M165.472 200V149.744H184.912C187.36 149.744 189.544 150.128 191.464 150.896C193.384 151.616 194.992 152.672 196.288 154.064C197.632 155.456 198.64 157.136 199.312 159.104C199.984 161.072 200.32 163.28 200.32 165.728C200.32 168.176 199.984 170.384 199.312 172.352C198.64 174.32 197.632 176 196.288 177.392C194.992 178.784 193.384 179.864 191.464 180.632C189.544 181.352 187.36 181.712 184.912 181.712H176.344V200H165.472ZM176.344 173H182.176C184.72 173 186.472 172.52 187.432 171.56C188.44 170.6 188.944 169.016 188.944 166.808V164.648C188.944 162.44 188.44 160.856 187.432 159.896C186.472 158.936 184.72 158.456 182.176 158.456H176.344V173ZM219.3 200H208.644V149.744H228.084C230.532 149.744 232.716 150.128 234.636 150.896C236.556 151.616 238.164 152.672 239.46 154.064C240.804 155.456 241.812 157.136 242.484 159.104C243.156 161.072 243.492 163.28 243.492 165.728C243.492 169.28 242.724 172.328 241.188 174.872C239.652 177.416 237.468 179.096 234.636 179.912L244.5 200H232.692L224.268 181.352H219.3V200ZM225.492 173C228.036 173 229.788 172.52 230.748 171.56C231.756 170.6 232.26 169.016 232.26 166.808V164.648C232.26 162.44 231.756 160.856 230.748 159.896C229.788 158.936 228.036 158.456 225.492 158.456H219.3V173H225.492ZM267.944 200.864C261.224 200.864 256.256 198.584 253.04 194.024C249.872 189.464 248.288 183.08 248.288 174.872C248.288 166.664 249.872 160.28 253.04 155.72C256.256 151.16 261.224 148.88 267.944 148.88C274.664 148.88 279.608 151.16 282.776 155.72C285.992 160.28 287.6 166.664 287.6 174.872C287.6 183.08 285.992 189.464 282.776 194.024C279.608 198.584 274.664 200.864 267.944 200.864ZM267.944 192.152C271.016 192.152 273.128 191.024 274.28 188.768C275.48 186.464 276.08 183.272 276.08 179.192V170.48C276.08 166.448 275.48 163.304 274.28 161.048C273.128 158.744 271.016 157.592 267.944 157.592C264.872 157.592 262.736 158.744 261.536 161.048C260.384 163.304 259.808 166.448 259.808 170.48V179.264C259.808 183.296 260.384 186.464 261.536 188.768C262.736 191.024 264.872 192.152 267.944 192.152ZM295.42 170.552V154.136H290.452V149.744H306.58V154.136H301.612V170.552H295.42ZM308.092 170.552V149.744H314.644L318.676 157.448H319.108L323.14 149.744H329.26V170.552H324.076V163.568L324.652 156.872H324.364L318.676 167.384L312.988 156.872H312.7L313.276 163.568V170.552H308.092Z" fill="white"/>
</svg>
